<?xml version="1.0" encoding="UTF-8" standalone="no"?>
<svg
   xmlns:dc="http://purl.org/dc/elements/1.1/"
   xmlns:cc="http://creativecommons.org/ns#"
   xmlns:rdf="http://www.w3.org/1999/02/22-rdf-syntax-ns#"
   xmlns:svg="http://www.w3.org/2000/svg"
   xmlns="http://www.w3.org/2000/svg"
   xmlns:sodipodi="http://sodipodi.sourceforge.net/DTD/sodipodi-0.dtd"
   xmlns:inkscape="http://www.inkscape.org/namespaces/inkscape"
   width="224mm"
   height="56mm"
   version="1.1"
   id="svg6781"
   sodipodi:docname="Logo2-qNimble-ColorBB.svg"
   inkscape:version="0.92.3 (2405546, 2018-03-11)">
  <metadata
     id="metadata6785">
    <rdf:RDF>
      <cc:Work
         rdf:about="">
        <dc:format>image/svg+xml</dc:format>
        <dc:type
           rdf:resource="http://purl.org/dc/dcmitype/StillImage" />
        <dc:title></dc:title>
      </cc:Work>
    </rdf:RDF>
  </metadata>
  <sodipodi:namedview
     pagecolor="#ffffff"
     bordercolor="#666666"
     borderopacity="1"
     objecttolerance="10"
     gridtolerance="10"
     guidetolerance="10"
     inkscape:pageopacity="0"
     inkscape:pageshadow="2"
     inkscape:window-width="1920"
     inkscape:window-height="1017"
     id="namedview6783"
     showgrid="false"
     inkscape:zoom="0.66977744"
     inkscape:cx="151.51546"
     inkscape:cy="-16.755689"
     inkscape:window-x="-8"
     inkscape:window-y="-8"
     inkscape:window-maximized="1"
     inkscape:current-layer="g6779"
     units="mm"
     inkscape:document-units="mm">
    <inkscape:grid
       type="xygrid"
       id="grid7336"
       units="mm"
       spacingx="3.7795276"
       spacingy="3.7795276" />
  </sodipodi:namedview>
  <desc
     id="desc6718">C:\Users\bluey\Documents\qNimble\Marketing\Logo2\ReRouterTry3.dxf - scale = 1.000000, origin = (0.000000, 0.000000), method = manual</desc>
  <defs
     id="defs6733">
    <marker
       id="DistanceX"
       orient="auto"
       refX="0"
       refY="0"
       style="overflow:visible">
      <path
         d="M 3,-3 -3,3 M 0,-5 V 5"
         style="stroke:#000000;stroke-width:0.5"
         id="path6720"
         inkscape:connector-curvature="0" />
    </marker>
    <pattern
       height="8"
       id="Hatch"
       patternUnits="userSpaceOnUse"
       width="8"
       x="0"
       y="0">
      <path
         d="M8 4 l-4,4"
         linecap="square"
         stroke="#000000"
         stroke-width="0.25"
         id="path6723" />
      <path
         d="M6 2 l-4,4"
         linecap="square"
         stroke="#000000"
         stroke-width="0.25"
         id="path6725" />
      <path
         d="M4 0 l-4,4"
         linecap="square"
         stroke="#000000"
         stroke-width="0.25"
         id="path6727" />
    </pattern>
    <symbol
       id="*Model_Space" />
    <symbol
       id="*Paper_Space" />
    <symbol
       id="*Paper_Space0" />
    <marker
       style="overflow:visible"
       refY="0"
       refX="0"
       orient="auto"
       id="DistanceX-3">
      <path
         id="path8757"
         style="stroke:#000000;stroke-width:0.5"
         d="M 3,-3 -3,3 M 0,-5 V 5"
         inkscape:connector-curvature="0" />
    </marker>
    <pattern
       y="0"
       x="0"
       width="8"
       patternUnits="userSpaceOnUse"
       id="Hatch-4"
       height="8">
      <path
         id="path8760"
         stroke-width="0.25"
         stroke="#000000"
         linecap="square"
         d="M8 4 l-4,4" />
      <path
         id="path8762"
         stroke-width="0.25"
         stroke="#000000"
         linecap="square"
         d="M6 2 l-4,4" />
      <path
         id="path8764"
         stroke-width="0.25"
         stroke="#000000"
         linecap="square"
         d="M4 0 l-4,4" />
    </pattern>
    <symbol
       id="*Model_Space-7" />
    <symbol
       id="*Paper_Space-7" />
    <symbol
       id="*Paper_Space0-1" />
  </defs>
  <g
     inkscape:groupmode="layer"
     inkscape:label="0"
     id="g6779"
     transform="translate(0,-910.86624)">
    <flowRoot
       xml:space="preserve"
       id="flowRoot1484"
       style="font-style:normal;font-variant:normal;font-weight:600;font-stretch:normal;font-size:16px;line-height:1.25;font-family:'Baloo 2';-inkscape-font-specification:'Baloo 2, Semi-Bold';font-variant-ligatures:normal;font-variant-caps:normal;font-variant-numeric:normal;font-feature-settings:normal;text-align:start;letter-spacing:0px;word-spacing:0px;writing-mode:lr-tb;text-anchor:start;fill:#000000;fill-opacity:1;stroke:none"
       transform="matrix(2.5371035,0,0,1,-642.42943,68.411882)"><flowRegion
         id="flowRegion1486"
         style="font-style:normal;font-variant:normal;font-weight:600;font-stretch:normal;font-size:16px;font-family:'Baloo 2';-inkscape-font-specification:'Baloo 2, Semi-Bold';font-variant-ligatures:normal;font-variant-caps:normal;font-variant-numeric:normal;font-feature-settings:normal;text-align:start;writing-mode:lr-tb;text-anchor:start"><rect
           id="rect1488"
           width="47.469318"
           height="43.433636"
           x="268.34647"
           y="971.33856"
           style="font-style:normal;font-variant:normal;font-weight:600;font-stretch:normal;font-size:16px;font-family:'Baloo 2';-inkscape-font-specification:'Baloo 2, Semi-Bold';font-variant-ligatures:normal;font-variant-caps:normal;font-variant-numeric:normal;font-feature-settings:normal;text-align:start;writing-mode:lr-tb;text-anchor:start" /></flowRegion><flowPara
         id="flowPara1490"
         style="font-style:normal;font-variant:normal;font-weight:600;font-stretch:normal;font-size:34.66666794px;font-family:'Baloo 2';-inkscape-font-specification:'Baloo 2, Semi-Bold';font-variant-ligatures:normal;font-variant-caps:normal;font-variant-numeric:normal;font-feature-settings:normal;text-align:start;writing-mode:lr-tb;text-anchor:start">qNimble</flowPara></flowRoot>    <path
       inkscape:connector-curvature="0"
       d="m 83.685047,956.22061 a 15.11812,15.11812 0 1 0 -30.23624,0 15.11812,15.11812 0 1 0 30.23624,0 z"
       style="fill:none;stroke:#3b4936;stroke-width:7.67999983;stroke-linecap:round;stroke-miterlimit:4;stroke-dasharray:none;stroke-dashoffset:1.70000005;stroke-opacity:1"
       id="path8772" />
    <path
       inkscape:connector-curvature="0"
       d="m 793.16537,956.22061 a 15.11812,15.11812 0 1 0 -30.23624,0 15.11812,15.11812 0 1 0 30.23624,0 z"
       style="fill:none;stroke:#3b4936;stroke-width:7.67999983;stroke-linecap:round;stroke-miterlimit:4;stroke-dasharray:none;stroke-dashoffset:1.70000005;stroke-opacity:1"
       id="path8774" />
    <path
       inkscape:connector-curvature="0"
       d="m 113.92125,1001.575 a 15.118112,15.118112 0 1 0 -30.236203,0 15.118112,15.118112 0 1 0 30.236203,0 z"
       style="fill:none;stroke:#3b4936;stroke-width:7.67999983;stroke-linecap:round;stroke-miterlimit:4;stroke-dasharray:none;stroke-dashoffset:1.70000005;stroke-opacity:1"
       id="path8776" />
    <path
       inkscape:connector-curvature="0"
       d="m 762.92913,1001.575 a 15.118112,15.118112 0 1 0 -30.2362,0 15.118112,15.118112 0 1 0 30.2362,0 z"
       style="fill:none;stroke:#3b4936;stroke-width:7.67999983;stroke-linecap:round;stroke-miterlimit:4;stroke-dasharray:none;stroke-dashoffset:1.70000005;stroke-opacity:1"
       id="path8778" />
    <path
       inkscape:connector-curvature="0"
       d="m 53.448807,1031.811 a 15.118112,15.118112 0 1 0 -30.2362,0 15.118112,15.118112 0 1 0 30.2362,0 z"
       style="fill:none;stroke:#3b4936;stroke-width:7.67999983;stroke-linecap:round;stroke-miterlimit:4;stroke-dasharray:none;stroke-dashoffset:1.70000005;stroke-opacity:1"
       id="path8780" />
    <path
       inkscape:connector-curvature="0"
       d="m 823.40157,1031.811 a 15.118112,15.118112 0 1 0 -30.2362,0 15.118112,15.118112 0 1 0 30.2362,0 z"
       style="fill:none;stroke:#3b4936;stroke-width:7.67999983;stroke-linecap:round;stroke-miterlimit:4;stroke-dasharray:none;stroke-dashoffset:1.70000005;stroke-opacity:1"
       id="path8782" />
    <path
       inkscape:connector-curvature="0"
       d="m 98.803127,1077.1658 a 15.118112,15.118112 0 1 0 -30.2362,0 15.118112,15.118112 0 1 0 30.2362,0 z"
       style="fill:none;stroke:#3b4936;stroke-width:7.67999983;stroke-linecap:round;stroke-miterlimit:4;stroke-dasharray:none;stroke-dashoffset:1.70000005;stroke-opacity:1"
       id="path8784" />
    <path
       inkscape:connector-curvature="0"
       d="m 778.04725,1077.1658 a 15.11812,15.11812 0 1 0 -30.23624,0 15.11812,15.11812 0 1 0 30.23624,0 z"
       style="fill:none;stroke:#3b4936;stroke-width:7.67999983;stroke-linecap:round;stroke-miterlimit:4;stroke-dasharray:none;stroke-dashoffset:1.70000005;stroke-opacity:1"
       id="path8786" />
    <path
       inkscape:connector-curvature="0"
       d="m 98.803127,925.98421 -19.54608,19.5464"
       style="fill:none;stroke:#3b4936;stroke-width:7.67999983;stroke-linecap:round;stroke-miterlimit:4;stroke-dasharray:none;stroke-dashoffset:1.70000005;stroke-opacity:1"
       id="path8788" />
    <path
       inkscape:connector-curvature="0"
       d="m 747.81101,925.98421 19.54612,19.5464"
       style="fill:none;stroke:#3b4936;stroke-width:7.67999983;stroke-linecap:round;stroke-miterlimit:4;stroke-dasharray:none;stroke-dashoffset:1.70000005;stroke-opacity:1"
       id="path8790" />
    <path
       inkscape:connector-curvature="0"
       d="M 98.803127,925.98421 H 747.81101"
       style="fill:none;stroke:#3b4936;stroke-width:7.67999983;stroke-linecap:round;stroke-miterlimit:4;stroke-dasharray:none;stroke-dashoffset:1.70267713;stroke-opacity:1"
       id="path8792" />
    <path
       inkscape:connector-curvature="0"
       d="m 159.27557,941.10261 -49.78232,49.782"
       style="fill:none;stroke:#3b4936;stroke-width:7.67999983;stroke-linecap:round;stroke-miterlimit:4;stroke-dasharray:none;stroke-dashoffset:1.70000005;stroke-opacity:1"
       id="path8794" />
    <path
       inkscape:connector-curvature="0"
       d="m 687.33857,941.10261 49.78232,49.782"
       style="fill:none;stroke:#3b4936;stroke-width:7.67999983;stroke-linecap:round;stroke-miterlimit:4;stroke-dasharray:none;stroke-dashoffset:1.70000005;stroke-opacity:1"
       id="path8796" />
    <path
       inkscape:connector-curvature="0"
       d="m 159.27557,941.10261 h 528.063"
       style="fill:none;stroke:#3b4936;stroke-width:7.67999983;stroke-linecap:round;stroke-miterlimit:4;stroke-dasharray:none;stroke-dashoffset:1.70267713;stroke-opacity:1"
       id="path8798" />
    <path
       inkscape:connector-curvature="0"
       d="m 113.92125,1107.4018 -19.546083,-19.546"
       style="fill:none;stroke:#3b4936;stroke-width:7.67999983;stroke-linecap:round;stroke-miterlimit:4;stroke-dasharray:none;stroke-dashoffset:1.70000005;stroke-opacity:1"
       id="path8800" />
    <path
       inkscape:connector-curvature="0"
       d="m 732.69293,1107.4018 19.54608,-19.546"
       style="fill:none;stroke:#3b4936;stroke-width:7.67999983;stroke-linecap:round;stroke-miterlimit:4;stroke-dasharray:none;stroke-dashoffset:1.70000005;stroke-opacity:1"
       id="path8802" />
    <path
       inkscape:connector-curvature="0"
       d="m 98.803127,1031.811 60.472443,60.4728"
       style="fill:none;stroke:#3b4936;stroke-width:7.67999983;stroke-linecap:round;stroke-miterlimit:4;stroke-dasharray:none;stroke-dashoffset:1.70000005;stroke-opacity:1"
       id="path8804" />
    <path
       inkscape:connector-curvature="0"
       d="m 747.81101,1031.811 -60.47244,60.4728"
       style="fill:none;stroke:#3b4936;stroke-width:7.67999983;stroke-linecap:round;stroke-miterlimit:4;stroke-dasharray:none;stroke-dashoffset:1.70000005;stroke-opacity:1"
       id="path8806" />
    <path
       inkscape:connector-curvature="0"
       d="m 159.27557,1092.2838 h 528.063"
       style="fill:none;stroke:#3b4936;stroke-width:7.67999983;stroke-linecap:round;stroke-miterlimit:4;stroke-dasharray:none;stroke-dashoffset:1.70267713;stroke-opacity:1"
       id="path8808" />
    <path
       inkscape:connector-curvature="0"
       d="M 731.64509,1107.4018 H 113.92125"
       style="fill:none;stroke:#3b4936;stroke-width:7.67999983;stroke-linecap:round;stroke-miterlimit:4;stroke-dasharray:none;stroke-dashoffset:1.70267713;stroke-opacity:1"
       id="path8810" />
    <path
       inkscape:connector-curvature="0"
       d="M 98.803127,1031.811 H 53.448807"
       style="fill:none;stroke:#3b4936;stroke-width:7.67999983;stroke-linecap:round;stroke-miterlimit:4;stroke-dasharray:none;stroke-dashoffset:1.70000005;stroke-opacity:1"
       id="path8812" />
    <path
       inkscape:connector-curvature="0"
       d="m 747.81101,1031.811 h 45.35436"
       style="fill:none;stroke:#3b4936;stroke-width:7.67999983;stroke-linecap:round;stroke-miterlimit:4;stroke-dasharray:none;stroke-dashoffset:1.70000005;stroke-opacity:1"
       id="path8814" />
    <g
       aria-label="qNimble"
       style="font-style:normal;font-variant:normal;font-weight:600;font-stretch:normal;font-size:149.33332825px;line-height:1.25;font-family:'Baloo 2';-inkscape-font-specification:'Baloo 2, Semi-Bold';font-variant-ligatures:normal;font-variant-caps:normal;font-variant-numeric:normal;font-feature-settings:normal;text-align:start;letter-spacing:0px;word-spacing:0px;writing-mode:lr-tb;text-anchor:start;fill:#6a964b;fill-opacity:1;stroke:none;stroke-width:4"
       id="text4572">
      <path
         d="m 219.08689,1081.2022 q -1.19466,0.2987 -3.584,0.7467 -2.24,0.448 -4.928,0.448 -5.376,0 -7.91466,-1.9413 -2.38934,-1.9414 -2.38934,-6.8694 v -20.3093 q -2.83733,1.1947 -6.57066,2.0907 -3.584,0.896 -8.064,0.896 -7.76534,0 -14.336,-2.24 -6.57067,-2.3894 -11.34933,-7.0187 -4.62934,-4.6293 -7.31734,-11.648 -2.688,-7.0187 -2.688,-16.4267 0,-9.408 2.83734,-16.4266 2.83733,-7.16804 7.91466,-11.79737 5.07733,-4.77867 12.096,-7.168 7.01867,-2.38933 15.53067,-2.38933 7.91466,0 14.48533,1.94133 6.72,1.792 10.60267,4.33067 2.53866,1.64266 4.032,4.032 1.64266,2.23999 1.64266,5.67466 z m -30.76266,-40.0213 q 3.73333,0 6.72,-0.896 2.98666,-0.896 5.22666,-2.5387 v -38.67731 q -1.94133,-1.19466 -4.77866,-2.09066 -2.83734,-0.896 -6.72,-0.896 -8.66134,0 -14.18667,5.52537 -5.52533,5.376 -5.52533,17.3226 0,11.648 5.07733,17.024 5.22667,5.2267 14.18667,5.2267 z"
         style="font-style:normal;font-variant:normal;font-weight:600;font-stretch:normal;font-size:149.33332825px;font-family:'Baloo 2';-inkscape-font-specification:'Baloo 2, Semi-Bold';font-variant-ligatures:normal;font-variant-caps:normal;font-variant-numeric:normal;font-feature-settings:normal;text-align:start;writing-mode:lr-tb;text-anchor:start;fill:#6a964b;fill-opacity:1;stroke-width:4"
         id="path2866" />
      <path
         d="m 250.05956,1055.0689 q -5.52534,0 -7.76534,-1.9413 -2.24,-2.0907 -2.24,-6.8694 v -79.59464 q 1.64267,-2.09066 4.77867,-3.28533 3.28533,-1.19467 7.168,-1.19467 4.62933,0 8.21333,1.64267 3.73334,1.64267 6.57067,6.57067 l 21.504,38.6773 q 2.98667,5.376 5.67467,11.2 2.83733,5.6747 4.92799,10.4534 l 0.59734,-0.1494 q -0.74667,-8.8106 -1.04534,-17.024 -0.14933,-8.3626 -0.14933,-16.42664 V 963.2289 q 1.19467,-0.29867 3.584,-0.59734 2.53867,-0.448 5.07733,-0.448 5.52534,0 7.76534,2.09067 2.38933,1.94133 2.38933,6.72 v 80.63997 q -1.64267,1.6427 -4.77867,2.5387 -2.98666,0.896 -7.168,0.896 -4.48,0 -8.21333,-1.4933 -3.584,-1.6427 -6.42133,-6.5707 l -21.504,-38.6773 q -2.98667,-5.2267 -5.824,-11.05071 -2.688,-5.97333 -4.77867,-10.75199 l -0.896,0.14933 q 0.74667,8.21333 0.896,16.87467 0.29867,8.6613 0.29867,16.4267 v 33.8986 q -1.19467,0.2987 -3.584,0.7467 -2.38933,0.448 -5.07733,0.448 z"
         style="font-style:normal;font-variant:normal;font-weight:600;font-stretch:normal;font-size:149.33332825px;font-family:'Baloo 2';-inkscape-font-specification:'Baloo 2, Semi-Bold';font-variant-ligatures:normal;font-variant-caps:normal;font-variant-numeric:normal;font-feature-settings:normal;text-align:start;writing-mode:lr-tb;text-anchor:start;fill:#6a964b;fill-opacity:1;stroke-width:4"
         id="path2868" />
      <path
         d="m 338.7519,983.8369 q 1.19466,-0.29867 3.43466,-0.74667 2.38934,-0.448 5.07734,-0.448 5.37599,0 7.76533,1.94133 2.53866,1.94134 2.53866,6.86934 v 62.4213 q -1.19466,0.2987 -3.584,0.7467 -2.24,0.448 -4.928,0.448 -5.37599,0 -7.91466,-1.9413 -2.38933,-1.9414 -2.38933,-6.8694 z m -1.49334,-21.65334 q 0,-4.33066 2.98667,-7.31733 3.136,-3.136 7.91467,-3.136 4.77866,0 7.76533,3.136 2.98666,2.98667 2.98666,7.31733 0,4.48 -2.98666,7.616 -2.98667,2.98667 -7.76533,2.98667 -4.77867,0 -7.91467,-2.98667 -2.98667,-3.136 -2.98667,-7.616 z"
         style="font-style:normal;font-variant:normal;font-weight:600;font-stretch:normal;font-size:149.33332825px;font-family:'Baloo 2';-inkscape-font-specification:'Baloo 2, Semi-Bold';font-variant-ligatures:normal;font-variant-caps:normal;font-variant-numeric:normal;font-feature-settings:normal;text-align:start;writing-mode:lr-tb;text-anchor:start;fill:#6a964b;fill-opacity:1;stroke-width:4"
         id="path2870" />
      <path
         d="m 482.36855,1053.8742 q -1.19466,0.2987 -3.584,0.7467 -2.24,0.448 -4.928,0.448 -5.376,0 -7.91466,-1.9413 -2.38934,-1.9414 -2.38934,-6.8694 v -38.8266 q 0,-5.9734 -3.28533,-8.66137 -3.28533,-2.688 -8.66133,-2.688 -3.584,0 -7.01867,1.344 -3.28533,1.344 -5.824,3.58397 0.448,2.0907 0.448,4.1814 v 48.6826 q -1.19467,0.2987 -3.584,0.7467 -2.24,0.448 -4.928,0.448 -5.376,0 -7.91466,-1.9413 -2.38934,-1.9414 -2.38934,-6.8694 v -38.8266 q 0,-5.9734 -3.43466,-8.66137 -3.43467,-2.688 -8.81067,-2.688 -3.73333,0 -6.86933,1.19466 -3.136,1.19467 -5.22667,2.38934 v 54.20797 q -1.344,0.2987 -3.584,0.7467 -2.24,0.448 -5.07733,0.448 -5.22667,0 -7.76534,-1.9413 -2.53866,-1.9414 -2.53866,-6.8694 v -47.93597 q 0,-3.43467 1.49333,-5.67467 1.49333,-2.38933 4.62933,-4.48 4.48,-2.98666 11.34934,-4.928 6.86933,-2.09066 14.18666,-2.09066 13.58934,0 22.10134,7.31733 4.33066,-3.136 9.85599,-5.22667 5.67467,-2.09066 13.29067,-2.09066 5.824,0 11.05067,1.49333 5.22666,1.344 8.96,4.48 3.88266,3.136 6.12266,8.064 2.24,4.77866 2.24,11.49867 z"
         style="font-style:normal;font-variant:normal;font-weight:600;font-stretch:normal;font-size:149.33332825px;font-family:'Baloo 2';-inkscape-font-specification:'Baloo 2, Semi-Bold';font-variant-ligatures:normal;font-variant-caps:normal;font-variant-numeric:normal;font-feature-settings:normal;text-align:start;writing-mode:lr-tb;text-anchor:start;fill:#6a964b;fill-opacity:1;stroke-width:4"
         id="path2872" />
      <path
         d="m 537.02921,981.1489 q 7.168,0 13.29066,2.38933 6.272,2.24 10.90134,7.01867 4.62933,4.62933 7.168,11.648 2.688,6.8693 2.688,16.2773 0,9.408 -2.688,16.4267 -2.688,7.0187 -7.616,11.7973 -4.928,4.7787 -11.94667,7.168 -6.86933,2.3894 -15.38133,2.3894 -8.66134,0 -15.08267,-2.0907 -6.42133,-2.0907 -10.60267,-4.928 -3.136,-2.0907 -4.62933,-4.48 -1.49333,-2.5387 -1.49333,-5.9733 v -81.8347 q 1.19466,-0.448 3.43466,-0.74667 2.38934,-0.448 5.22667,-0.448 5.22667,0 7.76533,1.94133 2.53867,1.94134 2.53867,6.86934 v 20.45866 q 3.136,-1.64266 7.168,-2.688 4.18133,-1.19466 9.25867,-1.19466 z m -3.28534,14.93333 q -4.032,0 -7.46666,1.344 -3.28534,1.344 -5.824,2.98667 v 37.3333 q 1.94133,1.1947 5.22666,2.3894 3.28534,1.0453 7.616,1.0453 8.36267,0 13.44,-5.5253 5.07734,-5.6747 5.07734,-17.1734 0,-11.648 -5.07734,-17.024 -4.928,-5.37597 -12.992,-5.37597 z"
         style="font-style:normal;font-variant:normal;font-weight:600;font-stretch:normal;font-size:149.33332825px;font-family:'Baloo 2';-inkscape-font-specification:'Baloo 2, Semi-Bold';font-variant-ligatures:normal;font-variant-caps:normal;font-variant-numeric:normal;font-feature-settings:normal;text-align:start;writing-mode:lr-tb;text-anchor:start;fill:#6a964b;fill-opacity:1;stroke-width:4"
         id="path2874" />
      <path
         d="m 606.36653,1053.8742 q -1.19467,0.2987 -3.584,0.7467 -2.24,0.448 -4.928,0.448 -5.376,0 -7.91467,-1.9413 -2.38933,-1.9414 -2.38933,-6.8694 v -89.3013 q 1.19467,-0.448 3.43467,-0.74667 2.38933,-0.448 5.07733,-0.448 5.376,0 7.76533,1.94133 2.53867,1.94134 2.53867,6.86934 v 89.3013 z"
         style="font-style:normal;font-variant:normal;font-weight:600;font-stretch:normal;font-size:149.33332825px;font-family:'Baloo 2';-inkscape-font-specification:'Baloo 2, Semi-Bold';font-variant-ligatures:normal;font-variant-caps:normal;font-variant-numeric:normal;font-feature-settings:normal;text-align:start;writing-mode:lr-tb;text-anchor:start;fill:#6a964b;fill-opacity:1;stroke-width:4"
         id="path2876" />
      <path
         d="m 641.55322,1027.1436 q 2.09066,7.616 7.76533,11.0506 5.67467,3.4347 14.03733,3.4347 6.272,0 11.49867,-1.792 5.376,-1.9413 8.66133,-4.032 2.09067,1.1947 3.43467,3.2853 1.344,2.0907 1.344,4.48 0,2.9867 -2.09067,5.376 -1.94133,2.24 -5.52533,3.8827 -3.43467,1.6427 -8.21333,2.5387 -4.77867,0.896 -10.304,0.896 -8.81067,0 -16.128,-2.3894 -7.168,-2.3893 -12.39467,-7.168 -5.07733,-4.928 -8.064,-12.096 -2.83733,-7.168 -2.83733,-16.7253 0,-9.2587 2.83733,-16.128 2.83734,-6.86934 7.616,-11.49867 4.928,-4.62933 11.34933,-6.86933 6.42134,-2.24 13.58934,-2.24 7.31733,0 13.44,2.38933 6.12266,2.24 10.45333,6.42133 4.33067,4.032 6.72,9.856 2.53867,5.67464 2.53867,12.39464 0,4.1814 -2.24,6.272 -2.09067,2.0907 -5.97334,2.688 z m 16.576,-31.80804 q -7.31734,0 -12.24534,4.92804 -4.928,4.7786 -5.52533,13.7386 l 33.152,-4.928 q -0.59733,-5.5253 -4.33067,-9.55731 -3.73333,-4.18133 -11.05066,-4.18133 z"
         style="font-style:normal;font-variant:normal;font-weight:600;font-stretch:normal;font-size:149.33332825px;font-family:'Baloo 2';-inkscape-font-specification:'Baloo 2, Semi-Bold';font-variant-ligatures:normal;font-variant-caps:normal;font-variant-numeric:normal;font-feature-settings:normal;text-align:start;writing-mode:lr-tb;text-anchor:start;fill:#6a964b;fill-opacity:1;stroke-width:4"
         id="path2878" />
    </g>
  </g>
</svg>
