<?xml version="1.0" encoding="UTF-8" standalone="no"?>
<!-- Created with Inkscape (http://www.inkscape.org/) -->
<svg xmlns:rdf="http://www.w3.org/1999/02/22-rdf-syntax-ns#" xmlns="http://www.w3.org/2000/svg" xmlns:cc="http://web.resource.org/cc/" xmlns:xlink="http://www.w3.org/1999/xlink" xmlns:dc="http://purl.org/dc/elements/1.1/" xmlns:svg="http://www.w3.org/2000/svg" xmlns:inkscape="http://www.inkscape.org/namespaces/inkscape" xmlns:sodipodi="http://sodipodi.sourceforge.net/DTD/sodipodi-0.dtd" xmlns:ns1="http://sozi.baierouge.fr" id="svg3460" viewBox="0 0 160.65 125" version="1.0" inkscape:version="0.91 r13725">
  <defs id="defs3462">
    <radialGradient id="radialGradient3860" gradientUnits="userSpaceOnUse" cy="2241.3" cx="513.75" gradientTransform="matrix(-.37227 .90682 -.97173 -.36590 2872.4 2594.6)" r="61.214">
      <stop id="stop3055" style="stop-color:#ffffff" offset="0"/>
      <stop id="stop3057" style="stop-color:#c8b7b7;stop-opacity:0" offset="1"/>
    </radialGradient>
  </defs>
  <g id="layer1" transform="translate(-259.67 -581.29)">
    <g id="g3849" transform="matrix(.99351 0 0 .99351 -1413.8 -605.38)">
      <path id="path3876" style="stroke:#000000;fill:#000000" d="m434.37 2361.5a209.1 171.73 0 1 1 -418.21 0 209.1 171.73 0 1 1 418.21 0z" transform="matrix(.35917 0 0 .35917 1689.5 410.2)"/>
      <rect id="rect3802" style="stroke:#000000;stroke-width:.49190;fill:#ffffff" rx="3.8393" ry="3.8393" height="55.75" width="7.7565" y="1256.7" x="1760.1"/>
      <rect id="rect3804" style="stroke:#000000;stroke-width:.49190;fill:#ffffff" transform="rotate(15)" rx="3.8393" ry="3.8393" height="55.75" width="7.7565" y="758.89" x="2020"/>
      <rect id="rect3806" style="stroke:#000000;stroke-width:.49190;fill:#ffffff" transform="rotate(-15)" rx="3.8393" ry="3.8393" height="55.75" width="7.7565" y="1672.1" x="1380.3"/>
      <path id="path3000" style="stroke:#000000;stroke-miterlimit:0;stroke-width:2;fill:#ffffff" d="m1723.2 1252.2l-36 16.5c-1.9 0.9-2.3 4-1.1 7 1.3 3 3.8 4.7 5.8 4.1l36.9-14.4-5.6-13.2z"/>
      <path id="rect2993" style="stroke:#000000;stroke-width:2;fill:#ffffff" d="m1813.1 1197.6l-96.5 44.8c-4.9 2.6-5.7 11.9-1.8 21.1 3.9 9.3 11.2 15.2 16.4 13.4l99.4-38.1-17.5-41.2z"/>
      <path id="path3002" style="stroke:#000000;stroke-width:2;fill:#ffffff" d="m1746 1257c0.2 0.6 0.4 1.3 0.7 2 2.6 6.1 9.5 9 15.7 6.6l0.4-0.1 13.8-5.9c-6.3 2.7-13.5-0.3-16.1-6.5-0.3-0.6-0.5-1.3-0.7-2l-13.8 5.9zm30.6 2.6l0.8-0.3v-0.1c-0.3 0.2-0.6 0.3-0.8 0.4z"/>
      <path id="path2991" style="stroke:#000000;stroke-width:5.4326;fill:#333333" d="m554.29 2268.8a60.714 60.714 0 1 1 -121.43 0 60.714 60.714 0 1 1 121.43 0z" transform="matrix(.33897 -.14363 .14363 .33897 1329.6 519.62)"/>
      <path id="path3816" style="stroke:#000000;fill:url(#radialGradient3860)" d="m554.29 2268.8a60.714 60.714 0 1 1 -121.43 0 60.714 60.714 0 1 1 121.43 0z" transform="matrix(.30496 -.12922 .13493 .31842 1364.9 559.7)"/>
    </g>
  </g>
  <metadata>
    <rdf:RDF>
      <cc:Work>
        <dc:format>image/svg+xml</dc:format>
        <dc:type rdf:resource="http://purl.org/dc/dcmitype/StillImage"/>
        <cc:license rdf:resource="http://creativecommons.org/licenses/publicdomain/"/>
        <dc:publisher>
          <cc:Agent rdf:about="http://openclipart.org/">
            <dc:title>Openclipart</dc:title>
          </cc:Agent>
        </dc:publisher>
        <dc:title>Telescope</dc:title>
        <dc:date>2006-12-26T00:00:00</dc:date>
        <dc:description/>
        <dc:source>https://openclipart.org/detail/24934/-by--24934</dc:source>
        <dc:creator>
          <cc:Agent>
            <dc:title>sheikh_tuhin</dc:title>
          </cc:Agent>
        </dc:creator>
      </cc:Work>
      <cc:License rdf:about="http://creativecommons.org/licenses/publicdomain/">
        <cc:permits rdf:resource="http://creativecommons.org/ns#Reproduction"/>
        <cc:permits rdf:resource="http://creativecommons.org/ns#Distribution"/>
        <cc:permits rdf:resource="http://creativecommons.org/ns#DerivativeWorks"/>
      </cc:License>
    </rdf:RDF>
  </metadata>
</svg>
