<?xml version="1.0" encoding="UTF-8" standalone="no"?>
<svg
   xmlns:dc="http://purl.org/dc/elements/1.1/"
   xmlns:cc="http://creativecommons.org/ns#"
   xmlns:rdf="http://www.w3.org/1999/02/22-rdf-syntax-ns#"
   xmlns:svg="http://www.w3.org/2000/svg"
   xmlns="http://www.w3.org/2000/svg"
   xmlns:sodipodi="http://sodipodi.sourceforge.net/DTD/sodipodi-0.dtd"
   xmlns:inkscape="http://www.inkscape.org/namespaces/inkscape"
   viewBox="0 0 2400.0001 600"
   height="600"
   width="2400"
   xml:space="preserve"
   id="svg815"
   version="1.1"
   sodipodi:docname="VescentNameAndMark.svg"
   inkscape:version="0.92.3 (2405546, 2018-03-11)"><sodipodi:namedview
     pagecolor="#ffffff"
     bordercolor="#666666"
     borderopacity="1"
     objecttolerance="10"
     gridtolerance="10"
     guidetolerance="10"
     inkscape:pageopacity="0"
     inkscape:pageshadow="2"
     inkscape:window-width="1920"
     inkscape:window-height="1017"
     id="namedview9266"
     showgrid="false"
     inkscape:zoom="0.28842249"
     inkscape:cx="950.82916"
     inkscape:cy="202.08757"
     inkscape:window-x="-8"
     inkscape:window-y="-8"
     inkscape:window-maximized="1"
     inkscape:current-layer="svg815" /><metadata
     id="metadata821"><rdf:RDF><cc:Work
         rdf:about=""><dc:format>image/svg+xml</dc:format><dc:type
           rdf:resource="http://purl.org/dc/dcmitype/StillImage" /><dc:title></dc:title></cc:Work></rdf:RDF></metadata><defs
     id="defs819"><clipPath
       id="clipPath831"
       clipPathUnits="userSpaceOnUse"><path
         id="path829"
         d="M 0,444 H 1477 V 0 H 0 Z"
         inkscape:connector-curvature="0" /></clipPath><linearGradient
       id="linearGradient879"
       spreadMethod="pad"
       gradientTransform="matrix(226.09991,0,0,-226.09991,90.5,186.4745)"
       gradientUnits="userSpaceOnUse"
       y2="0"
       x2="1"
       y1="0"
       x1="0"><stop
         id="stop873"
         offset="0"
         style="stop-opacity:1;stop-color:#26a9fb" /><stop
         id="stop875"
         offset="0.999281"
         style="stop-opacity:1;stop-color:#2e3191" /><stop
         id="stop877"
         offset="1"
         style="stop-opacity:1;stop-color:#2e3191" /></linearGradient><linearGradient
       id="linearGradient901"
       spreadMethod="pad"
       gradientTransform="matrix(-217.23846,0,0,217.23846,312.56152,274.61996)"
       gradientUnits="userSpaceOnUse"
       y2="0"
       x2="1"
       y1="0"
       x1="0"><stop
         id="stop895"
         offset="0"
         style="stop-opacity:1;stop-color:#26a9fb" /><stop
         id="stop897"
         offset="0.999281"
         style="stop-opacity:1;stop-color:#2e3191" /><stop
         id="stop899"
         offset="1"
         style="stop-opacity:1;stop-color:#2e3191" /></linearGradient><clipPath
       id="clipPath911"
       clipPathUnits="userSpaceOnUse"><path
         id="path909"
         d="M 0,444 H 1477 V 0 H 0 Z"
         inkscape:connector-curvature="0" /></clipPath></defs><g
     transform="matrix(1.7880785,0,0,-1.7880785,-120.49579,696.95428)"
     id="g823"><g
       id="g825"><g
         clip-path="url(#clipPath831)"
         id="g827"><g
           transform="translate(517.308,276.7397)"
           id="g833"><path
             id="path835"
             style="fill:#fd0800;fill-opacity:1;fill-rule:nonzero;stroke:none"
             d="m 0,0 h 23.376 c 3.542,0 5.829,-3.747 4.21,-6.897 l -51.408,-100.012 c -0.811,-1.578 -2.436,-2.57 -4.209,-2.57 H -66.11 c -1.772,0 -3.396,0.99 -4.208,2.565 l -51.548,100.012 c -1.624,3.15 0.663,6.902 4.207,6.902 h 23.521 c 1.784,0 3.417,-1.004 4.223,-2.596 l 38.623,-76.306 c 1.752,-3.461 6.694,-3.461 8.446,0 L -4.223,-2.596 C -3.417,-1.004 -1.784,0 0,0"
             inkscape:connector-curvature="0" /></g><g
           transform="translate(666.0948,251.9)"
           id="g837"><path
             id="path839"
             style="fill:#fd0800;fill-opacity:1;fill-rule:nonzero;stroke:none"
             d="m 0,0 h -72.336 c -2.593,0 -4.695,-2.102 -4.695,-4.695 v -8.088 c 0,-2.593 2.102,-4.695 4.695,-4.695 h 69.268 c 2.593,0 4.695,-2.102 4.695,-4.695 v -15.45 c 0,-2.593 -2.102,-4.695 -4.695,-4.695 h -69.268 c -2.593,0 -4.695,-2.102 -4.695,-4.695 v -8.091 c 0,-2.593 2.102,-4.695 4.695,-4.695 H 0 c 2.593,0 4.695,-2.102 4.695,-4.695 v -15.45 c 0,-2.593 -2.102,-4.695 -4.695,-4.695 h -104.076 c -2.593,0 -4.695,2.102 -4.695,4.695 V 20.145 c 0,2.593 2.102,4.695 4.695,4.695 H 0 c 2.593,0 4.695,-2.102 4.695,-4.695 V 4.695 C 4.695,2.102 2.593,0 0,0"
             inkscape:connector-curvature="0" /></g><g
           transform="translate(708.3719,203.1401)"
           id="g841"><path
             id="path843"
             style="fill:#fd0800;fill-opacity:1;fill-rule:nonzero;stroke:none"
             d="m 0,0 c 2.784,0 5.379,-1.616 6.406,-4.203 2.69,-6.776 12.956,-10.975 37.116,-10.975 26.372,0 32.814,4.139 32.814,11.039 0,7.974 -4.907,9.352 -37.414,11.5 -44.315,3.065 -63.941,11.959 -63.941,36.186 0,22.846 24.688,33.12 62.56,33.12 36.607,0 59.693,-9.591 65.746,-28.074 1.459,-4.457 -1.975,-9.033 -6.665,-9.033 H 77.395 c -2.706,0 -5.358,1.449 -6.385,3.952 -2.763,6.731 -13.535,9.39 -34.388,9.39 -23.308,0 -28.521,-3.836 -28.521,-9.813 0,-6.749 5.213,-8.894 34.96,-11.349 40.172,-3.065 66.393,-5.826 66.393,-34.498 0,-28.06 -25.914,-36.189 -64.858,-36.189 -39.411,0 -64.63,8.004 -70.809,30.052 -1.251,4.462 2.138,8.895 6.772,8.895 z"
             inkscape:connector-curvature="0" /></g><g
           transform="translate(893.7165,279.8075)"
           id="g845"><path
             id="path847"
             style="fill:#fd0800;fill-opacity:1;fill-rule:nonzero;stroke:none"
             d="m 0,0 c 36.167,0 58.273,-13.936 64.772,-37.162 1.18,-4.219 -2.128,-8.378 -6.509,-8.378 H 37.455 c -2.608,0 -4.992,1.502 -6.064,3.88 -3.744,8.307 -13.806,14.672 -31.391,14.672 -23.459,0 -34.805,-11.498 -34.805,-30.666 0,-19.32 11.498,-30.972 34.805,-30.972 17.601,0 27.666,6.494 31.402,14.943 1.06,2.398 3.458,3.916 6.081,3.916 h 20.792 c 4.377,0 7.681,-4.152 6.512,-8.37 -6.479,-23.395 -28.592,-37.477 -64.787,-37.477 -44.005,0 -68.08,20.394 -68.08,57.96 C -68.08,-20.24 -44.005,0 0,0"
             inkscape:connector-curvature="0" /></g><g
           transform="translate(1080.9578,251.9)"
           id="g849"><path
             id="path851"
             style="fill:#fd0800;fill-opacity:1;fill-rule:nonzero;stroke:none"
             d="m 0,0 h -71.669 c -2.777,0 -5.028,-2.251 -5.028,-5.029 v -7.421 c 0,-2.777 2.251,-5.028 5.028,-5.028 h 68.601 c 2.777,0 5.029,-2.252 5.029,-5.029 v -14.782 c 0,-2.778 -2.252,-5.029 -5.029,-5.029 h -68.601 c -2.777,0 -5.028,-2.251 -5.028,-5.029 v -7.424 c 0,-2.777 2.251,-5.028 5.028,-5.028 H 0 c 2.777,0 5.029,-2.252 5.029,-5.029 V -79.61 c 0,-2.777 -2.252,-5.029 -5.029,-5.029 h -103.409 c -2.777,0 -5.028,2.252 -5.028,5.029 v 99.421 c 0,2.777 2.251,5.029 5.028,5.029 L 0,24.84 c 2.777,0 5.029,-2.252 5.029,-5.029 V 5.029 C 5.029,2.251 2.777,0 0,0"
             inkscape:connector-curvature="0" /></g><g
           transform="translate(1216.1925,276.7397)"
           id="g853"><path
             id="path855"
             style="fill:#fd0800;fill-opacity:1;fill-rule:nonzero;stroke:none"
             d="m 0,0 h 21.397 c 2.813,0 5.094,-2.281 5.094,-5.094 v -99.291 c 0,-2.813 -2.281,-5.094 -5.094,-5.094 h -38.93 c -1.54,0 -2.998,0.697 -3.965,1.897 l -53.963,66.909 c -3.016,3.741 -9.059,1.608 -9.059,-3.198 v -60.514 c 0,-2.813 -2.281,-5.094 -5.094,-5.094 h -21.552 c -2.813,0 -5.094,2.281 -5.094,5.094 v 99.291 c 0,2.813 2.281,5.094 5.094,5.094 h 39.082 c 1.54,0 2.998,-0.697 3.965,-1.896 l 53.966,-66.91 c 3.016,-3.741 9.059,-1.608 9.059,3.198 V -5.094 C -5.094,-2.281 -2.813,0 0,0"
             inkscape:connector-curvature="0" /></g><g
           transform="translate(1381.1989,249.7547)"
           id="g857"><path
             id="path859"
             style="fill:#fd0800;fill-opacity:1;fill-rule:nonzero;stroke:none"
             d="m 0,0 h -39.384 c -2.927,0 -5.301,-2.373 -5.301,-5.301 v -71.891 c 0,-2.928 -2.373,-5.301 -5.301,-5.301 h -21.138 c -2.927,0 -5.301,2.373 -5.301,5.301 v 71.891 c 0,2.928 -2.373,5.301 -5.301,5.301 h -39.538 c -2.928,0 -5.301,2.373 -5.301,5.301 v 16.383 c 0,2.928 2.373,5.301 5.301,5.301 H 0 c 2.928,0 5.301,-2.373 5.301,-5.301 V 5.301 C 5.301,2.373 2.928,0 0,0"
             inkscape:connector-curvature="0" /></g></g></g><g
       id="g861"><g
         id="g863"><g
           id="g869"><g
             id="g871"><path
               id="path881"
               style="fill:url(#linearGradient879);stroke:none"
               d="m 90.5,206.365 c 0,-6.106 3.229,-11.749 8.471,-14.802 v 0 l 96.108,-55.493 c 5.242,-3.054 11.7,-3.054 16.942,0 v 0 l 96.107,55.475 c 5.243,3.054 8.472,8.696 8.472,14.803 v 0 32.804 c 0,-6.107 -3.229,-11.749 -8.472,-14.803 v 0 l -96.107,-55.475 c -5.242,-3.054 -11.7,-3.054 -16.942,0 v 0 l -96.108,55.493 c -5.242,3.053 -8.471,8.696 -8.471,14.802 v 0 z"
               inkscape:connector-curvature="0" /></g></g></g></g><g
       id="g883"><g
         id="g885"><g
           id="g891"><g
             id="g893"><path
               id="path903"
               style="fill:url(#linearGradient901);stroke:none"
               d="m 195.099,307.55 -92.051,-53.146 c -0.153,-0.089 16.302,-9.314 25.988,-15.004 v 0 l 66.063,38.142 c 5.242,3.053 11.66,3.053 16.901,0 v 0 L 278.064,239.4 c 8.452,4.562 24.006,13.711 25.987,15.004 v 0 L 212,307.55 c -2.62,1.527 -5.535,2.29 -8.45,2.29 v 0 c -2.915,0 -5.83,-0.763 -8.451,-2.29"
               inkscape:connector-curvature="0" /></g></g></g></g><g
       id="g905"><g
         clip-path="url(#clipPath911)"
         id="g907"><g
           transform="translate(308.1289,191.5631)"
           id="g913"><path
             id="path915"
             style="fill:#fd0800;fill-opacity:1;fill-rule:nonzero;stroke:none"
             d="m 0,0 -96.108,-55.488 c -5.242,-3.026 -11.7,-3.026 -16.942,0 L -209.158,0 c -5.242,3.026 -8.471,8.619 -8.471,14.672 v -32.058 c 0,-6.053 3.229,-11.646 8.471,-14.672 l 96.108,-55.488 c 5.242,-3.026 11.7,-3.026 16.942,0 L 0,-32.058 c 5.242,3.026 8.471,8.619 8.471,14.672 V 14.672 C 8.471,8.619 5.242,3.026 0,0"
             inkscape:connector-curvature="0" /></g><g
           transform="translate(278.0642,239.4001)"
           id="g917"><path
             id="path919"
             style="fill:#fd0800;fill-opacity:1;fill-rule:nonzero;stroke:none"
             d="m 0,0 -66.063,38.142 c -5.23,3.019 -11.673,3.019 -16.902,0 L -149.028,0 -175.016,15.004 -82.965,68.15 c 5.229,3.019 11.672,3.019 16.902,0 L 25.988,15.004 Z m -66.043,-38.13 c -5.242,-3.027 -11.7,-3.027 -16.942,0 l -37.95,21.91 37.97,21.922 c 5.229,3.02 11.672,3.02 16.902,0 l 37.97,-21.922 z M 38.266,30.596 c 0,6.038 -3.221,11.618 -8.45,14.637 l -95.879,55.356 c -5.23,3.019 -11.673,3.019 -16.902,0 l -96.128,-55.294 c -5.061,-2.921 -8.471,-6.171 -8.471,-14.67 0,-0.001 0.037,-32.05 0.047,-31.814 0,-5.84 3.387,-11.062 8.424,-13.97 l 96.108,-55.488 c 5.242,-3.026 11.7,-3.026 16.942,0 l 96.108,55.488 c 5.242,3.026 8.471,8.619 8.471,14.672 z"
             inkscape:connector-curvature="0" /></g></g></g></g></svg>